<svg width="24" height="37" viewBox="0 0 24 37" fill="none" xmlns="http://www.w3.org/2000/svg">
<path d="M11.9999 2C10.6866 2 9.38629 2.25866 8.17303 2.7612C6.95978 3.26375 5.85738 4.00035 4.9288 4.92893C3.05343 6.8043 1.99987 9.34784 1.99987 12C1.99112 14.3091 2.79066 16.5485 4.25987 18.33L2.25987 20.33C2.12111 20.4706 2.02711 20.6492 1.98974 20.8432C1.95236 21.0372 1.97329 21.2379 2.04987 21.42C2.13292 21.5999 2.26757 21.7511 2.43671 21.8544C2.60586 21.9577 2.80187 22.0083 2.99987 22H11.9999C14.652 22 17.1956 20.9464 19.0709 19.0711C20.9463 17.1957 21.9999 14.6522 21.9999 12C21.9999 9.34784 20.9463 6.8043 19.0709 4.92893C17.1956 3.05357 14.652 2 11.9999 2ZM11.9999 20H5.40987L6.33987 19.07C6.52612 18.8826 6.63066 18.6292 6.63066 18.365C6.63066 18.1008 6.52612 17.8474 6.33987 17.66C5.03045 16.352 4.21504 14.6305 4.03256 12.7888C3.85007 10.947 4.31181 9.09901 5.33909 7.55952C6.36638 6.02004 7.89566 4.88436 9.66638 4.34597C11.4371 3.80759 13.3397 3.8998 15.0501 4.60691C16.7604 5.31402 18.1727 6.59227 19.0463 8.22389C19.9199 9.85551 20.2007 11.7395 19.841 13.555C19.4813 15.3705 18.5032 17.005 17.0734 18.1802C15.6436 19.3554 13.8506 19.9985 11.9999 20Z" fill="#48464C"/>
<path d="M6.02734 30.1289H7.10156C7.07292 30.5091 6.96745 30.8464 6.78516 31.1406C6.60286 31.4323 6.34896 31.6615 6.02344 31.8281C5.69792 31.9948 5.30339 32.0781 4.83984 32.0781C4.48307 32.0781 4.16146 32.0156 3.875 31.8906C3.59115 31.763 3.34766 31.582 3.14453 31.3477C2.94401 31.1107 2.79036 30.8268 2.68359 30.4961C2.57682 30.1628 2.52344 29.7891 2.52344 29.375V28.9414C2.52344 28.5273 2.57812 28.1536 2.6875 27.8203C2.79688 27.487 2.95312 27.2031 3.15625 26.9688C3.36198 26.7318 3.60807 26.5495 3.89453 26.4219C4.18359 26.2943 4.50651 26.2305 4.86328 26.2305C5.32682 26.2305 5.71875 26.3164 6.03906 26.4883C6.35938 26.6576 6.60807 26.8906 6.78516 27.1875C6.96224 27.4844 7.06901 27.8255 7.10547 28.2109H6.03125C6.01042 27.9714 5.95833 27.7682 5.875 27.6016C5.79427 27.4349 5.67188 27.3086 5.50781 27.2227C5.34635 27.1341 5.13151 27.0898 4.86328 27.0898C4.65495 27.0898 4.47135 27.1289 4.3125 27.207C4.15625 27.2852 4.02604 27.4023 3.92188 27.5586C3.81771 27.7122 3.73958 27.9049 3.6875 28.1367C3.63542 28.3659 3.60938 28.6315 3.60938 28.9336V29.375C3.60938 29.6641 3.63281 29.9232 3.67969 30.1523C3.72656 30.3815 3.79948 30.5755 3.89844 30.7344C3.9974 30.8932 4.125 31.0143 4.28125 31.0977C4.4375 31.181 4.6237 31.2227 4.83984 31.2227C5.10286 31.2227 5.31641 31.181 5.48047 31.0977C5.64714 31.0143 5.77344 30.8919 5.85938 30.7305C5.94792 30.569 6.00391 30.3685 6.02734 30.1289ZM8.86719 26V32H7.83203V26H8.86719ZM8.70312 29.7344H8.39844C8.39844 29.4401 8.4375 29.1693 8.51562 28.9219C8.59375 28.6745 8.70443 28.4596 8.84766 28.2773C8.99089 28.0924 9.16146 27.9492 9.35938 27.8477C9.5599 27.7461 9.78125 27.6953 10.0234 27.6953C10.2318 27.6953 10.4206 27.7253 10.5898 27.7852C10.7617 27.8424 10.9089 27.9349 11.0312 28.0625C11.1536 28.1901 11.2474 28.3568 11.3125 28.5625C11.3802 28.7656 11.4141 29.013 11.4141 29.3047V32H10.375V29.2969C10.375 29.1016 10.3464 28.9479 10.2891 28.8359C10.2318 28.7214 10.1497 28.6393 10.043 28.5898C9.9388 28.5404 9.8099 28.5156 9.65625 28.5156C9.48958 28.5156 9.34635 28.5482 9.22656 28.6133C9.10677 28.6758 9.00781 28.763 8.92969 28.875C8.85417 28.987 8.79688 29.1159 8.75781 29.2617C8.72135 29.4076 8.70312 29.5651 8.70312 29.7344ZM14.6523 31.1016V29.1523C14.6523 29.0091 14.6276 28.8854 14.5781 28.7812C14.5286 28.6771 14.4531 28.5964 14.3516 28.5391C14.25 28.4818 14.1211 28.4531 13.9648 28.4531C13.8268 28.4531 13.7057 28.4766 13.6016 28.5234C13.5 28.5703 13.4219 28.6367 13.3672 28.7227C13.3125 28.806 13.2852 28.9023 13.2852 29.0117H12.25C12.25 28.8372 12.2917 28.6719 12.375 28.5156C12.4583 28.3568 12.5768 28.2161 12.7305 28.0938C12.8867 27.9688 13.0729 27.8711 13.2891 27.8008C13.5078 27.7305 13.7526 27.6953 14.0234 27.6953C14.3438 27.6953 14.6289 27.75 14.8789 27.8594C15.1315 27.9661 15.3294 28.1276 15.4727 28.3438C15.6185 28.5599 15.6914 28.832 15.6914 29.1602V31.0039C15.6914 31.2148 15.7044 31.3958 15.7305 31.5469C15.7591 31.6953 15.8008 31.8242 15.8555 31.9336V32H14.8047C14.7552 31.8932 14.7174 31.7578 14.6914 31.5938C14.6654 31.4271 14.6523 31.263 14.6523 31.1016ZM14.7969 29.4258L14.8047 30.0391H14.1523C13.9909 30.0391 13.849 30.056 13.7266 30.0898C13.6042 30.1211 13.5039 30.168 13.4258 30.2305C13.3477 30.2904 13.2891 30.3633 13.25 30.4492C13.2109 30.5326 13.1914 30.6276 13.1914 30.7344C13.1914 30.8385 13.2148 30.9323 13.2617 31.0156C13.3112 31.099 13.3815 31.1654 13.4727 31.2148C13.5664 31.2617 13.6758 31.2852 13.8008 31.2852C13.9831 31.2852 14.1419 31.2487 14.2773 31.1758C14.4128 31.1003 14.5182 31.0091 14.5938 30.9023C14.6693 30.7956 14.7096 30.694 14.7148 30.5977L15.0117 31.043C14.9753 31.1497 14.9206 31.263 14.8477 31.3828C14.7747 31.5026 14.681 31.6146 14.5664 31.7188C14.4518 31.8229 14.3138 31.9089 14.1523 31.9766C13.9909 32.0443 13.8034 32.0781 13.5898 32.0781C13.3164 32.0781 13.0716 32.0234 12.8555 31.9141C12.6393 31.8047 12.4688 31.6549 12.3438 31.4648C12.2188 31.2747 12.1562 31.0586 12.1562 30.8164C12.1562 30.5924 12.1979 30.3945 12.2812 30.2227C12.3646 30.0508 12.4883 29.9062 12.6523 29.7891C12.8164 29.6693 13.0195 29.5794 13.2617 29.5195C13.5065 29.457 13.7865 29.4258 14.1016 29.4258H14.7969ZM18.6211 27.7734V28.5156H16.1992V27.7734H18.6211ZM16.8477 26.7344H17.8828V30.7812C17.8828 30.9062 17.8997 31.0026 17.9336 31.0703C17.9674 31.138 18.0182 31.1836 18.0859 31.207C18.1536 31.2305 18.2344 31.2422 18.3281 31.2422C18.3958 31.2422 18.4583 31.2383 18.5156 31.2305C18.5729 31.2227 18.6211 31.2148 18.6602 31.207L18.6641 31.9805C18.5781 32.0091 18.4805 32.0326 18.3711 32.0508C18.2643 32.069 18.1432 32.0781 18.0078 32.0781C17.776 32.0781 17.5729 32.0391 17.3984 31.9609C17.224 31.8802 17.0885 31.7513 16.9922 31.5742C16.8958 31.3945 16.8477 31.1576 16.8477 30.8633V26.7344Z" fill="#48464C"/>
</svg>
