<svg width="15" height="15" viewBox="0 0 15 15" fill="none" xmlns="http://www.w3.org/2000/svg">
<path d="M7.50004 1.25C6.67928 1.25 5.86655 1.41166 5.10827 1.72575C4.34998 2.03984 3.66099 2.50022 3.08062 3.08058C1.90852 4.25269 1.25004 5.8424 1.25004 7.5C1.24457 8.94321 1.74428 10.3428 2.66254 11.4563L1.41254 12.7063C1.32581 12.7941 1.26707 12.9057 1.24371 13.027C1.22035 13.1482 1.23343 13.2737 1.28129 13.3875C1.3332 13.5 1.41735 13.5945 1.52307 13.659C1.62878 13.7235 1.75129 13.7552 1.87504 13.75H7.50004C9.15764 13.75 10.7474 13.0915 11.9195 11.9194C13.0916 10.7473 13.75 9.1576 13.75 7.5C13.75 5.8424 13.0916 4.25269 11.9195 3.08058C10.7474 1.90848 9.15764 1.25 7.50004 1.25ZM7.50004 12.5H3.38129L3.96254 11.9187C4.07895 11.8016 4.14428 11.6432 4.14428 11.4781C4.14428 11.313 4.07895 11.1546 3.96254 11.0375C3.14415 10.22 2.63452 9.14409 2.52047 7.993C2.40642 6.84191 2.695 5.68688 3.33706 4.7247C3.97911 3.76252 4.93491 3.05272 6.04161 2.71623C7.14831 2.37974 8.33745 2.43738 9.40642 2.87932C10.4754 3.32126 11.3581 4.12017 11.9041 5.13993C12.4501 6.15969 12.6256 7.33721 12.4007 8.47188C12.1759 9.60654 11.5646 10.6282 10.671 11.3626C9.77739 12.0971 8.65676 12.4991 7.50004 12.5Z" fill="#48464C"/>
</svg>
