<svg width="19" height="17" viewBox="0 0 19 17" fill="none" xmlns="http://www.w3.org/2000/svg">
<path d="M11.9188 3.52282L11.9188 8.71063H14.5764C14.723 8.71066 14.8662 8.74871 14.9881 8.81997C15.1099 8.89122 15.2049 8.99249 15.261 9.11097C15.3171 9.22945 15.3317 9.35981 15.3032 9.48558C15.2746 9.61136 15.204 9.72689 15.1004 9.81758L10.2194 14.0885C10.0804 14.21 9.89195 14.2783 9.69543 14.2783C9.49891 14.2783 9.31044 14.21 9.17146 14.0885L4.29047 9.81758C4.18685 9.72689 4.11629 9.61136 4.08771 9.48558C4.05912 9.35981 4.0738 9.22945 4.12988 9.11097C4.18596 8.99249 4.28093 8.89122 4.40277 8.81997C4.52462 8.74871 4.66788 8.71066 4.81443 8.71063H7.47208V3.52282C7.47208 3.35083 7.55016 3.18589 7.68915 3.06427C7.82813 2.94266 8.01664 2.87434 8.2132 2.87434H11.1777C11.3742 2.87434 11.5627 2.94266 11.7017 3.06427C11.8407 3.18589 11.9188 3.35083 11.9188 3.52282Z" stroke="#48464C" stroke-linecap="round" stroke-linejoin="round"/>
</svg>
