<svg width="24" height="24" viewBox="0 0 24 24" fill="none" xmlns="http://www.w3.org/2000/svg">
<g clip-path="url(#clip0_441_3008)">
<path d="M13.172 3.0427L13.1702 3.04104C12.5055 2.44628 11.4947 2.44628 10.83 3.04104L10.8282 3.0427L2.47044 10.5706C1.62292 11.3235 2.14299 12.75 3.3001 12.75H4.2501V19C4.2501 19.9642 5.03588 20.75 6.0001 20.75H9.0001C9.96431 20.75 10.7501 19.9642 10.7501 19V14.75H13.2501V19C13.2501 19.9642 14.0359 20.75 15.0001 20.75H18.0001C18.9643 20.75 19.7501 19.9642 19.7501 19V12.75H20.7001C21.8225 12.75 22.4162 11.342 21.5264 10.5676L13.172 3.0427Z" stroke="#3BAEDA" stroke-width="1.5"/>
</g>
<defs>
<clipPath id="clip0_441_3008">
<rect width="24" height="24" fill="white"/>
</clipPath>
</defs>
</svg>
