<svg width="19" height="17" viewBox="0 0 19 17" fill="none" xmlns="http://www.w3.org/2000/svg">
<path d="M7.08122 13.8985V8.71069H4.42358C4.27702 8.71066 4.13376 8.67262 4.01192 8.60136C3.89007 8.5301 3.7951 8.42883 3.73902 8.31036C3.68294 8.19188 3.66827 8.06152 3.69685 7.93574C3.72543 7.80997 3.79599 7.69443 3.89961 7.60374L8.7806 3.33287C8.91958 3.2113 9.10805 3.14301 9.30457 3.14301C9.50109 3.14301 9.68956 3.2113 9.82854 3.33287L14.7095 7.60374C14.8132 7.69443 14.8837 7.80997 14.9123 7.93574C14.9409 8.06152 14.9262 8.19188 14.8701 8.31036C14.814 8.42883 14.7191 8.5301 14.5972 8.60136C14.4754 8.67262 14.3321 8.71066 14.1856 8.71069H11.5279V13.8985C11.5279 14.0705 11.4498 14.2354 11.3109 14.3571C11.1719 14.4787 10.9834 14.547 10.7868 14.547H7.82234C7.62578 14.547 7.43728 14.4787 7.29829 14.3571C7.1593 14.2354 7.08122 14.0705 7.08122 13.8985Z" stroke="#48464C" stroke-linecap="round" stroke-linejoin="round"/>
</svg>
